<svg width="174" height="53" viewBox="0 0 174 53" fill="none" xmlns="http://www.w3.org/2000/svg">
<path d="M18.6267 26.4365V26.8976V27.0607V27.7419V28.0239H20.2151V27.7419V27.0607V26.4365H19.994H18.6267Z" fill="#004B81"/>
<path d="M22.2567 26.4365V27.0607V27.7419V28.0239H23.8441V27.7419V27.3359V27.0607V26.4365H23.1266H22.2567Z" fill="#004B81"/>
<path d="M20.7255 19.688V21.2754H22.3129V19.688H22.1963H20.8363H20.7255Z" fill="#004B81"/>
<path d="M35.901 12.8611C35.7756 12.7327 35.6045 12.659 35.425 12.656C35.2455 12.653 35.0721 12.7209 34.9424 12.8451L32.221 15.4528C31.7597 15.872 31.1724 16.1263 30.5511 16.1762C30.3063 16.1699 30.0653 16.1136 29.843 16.0107C29.6208 15.9078 29.422 15.7604 29.2589 15.5777C27.9537 14.2718 27.8545 11.1336 27.9258 10.035C27.9319 9.94203 27.9188 9.84883 27.8874 9.76115C27.856 9.67347 27.807 9.59316 27.7433 9.5252C27.6796 9.45725 27.6026 9.40308 27.5172 9.36607C27.4317 9.32905 27.3396 9.30998 27.2464 9.31001H22.1958V7.34641H28.2466C28.4271 7.34624 28.6001 7.27441 28.7277 7.14672C28.8552 7.01904 28.9268 6.84593 28.9267 6.66547V1.34916C28.9268 1.1687 28.8552 0.995606 28.7277 0.867926C28.6001 0.740246 28.4271 0.66843 28.2466 0.668265H21.6765C21.6239 0.655237 21.5699 0.648257 21.5157 0.647461C21.4264 0.647452 21.3379 0.665036 21.2554 0.699211C21.1729 0.733386 21.0979 0.783481 21.0347 0.846637C20.9716 0.909792 20.9215 0.984772 20.8873 1.06729C20.8531 1.14981 20.8355 1.23826 20.8355 1.32758V9.30999H15.7345C15.6413 9.30997 15.5492 9.32906 15.4637 9.36608C15.3783 9.4031 15.3014 9.45726 15.2377 9.52522C15.174 9.59318 15.125 9.67348 15.0936 9.76115C15.0622 9.84883 15.0491 9.94202 15.0552 10.0349C15.1272 11.1336 15.0272 14.2718 13.7221 15.5777C13.559 15.7604 13.3602 15.9077 13.138 16.0107C12.9157 16.1136 12.6747 16.1699 12.4299 16.1761C11.8091 16.1268 11.2222 15.8726 10.7615 15.4536L8.03936 12.8451C7.90979 12.7207 7.73632 12.6526 7.55676 12.6556C7.3772 12.6586 7.20612 12.7325 7.08078 12.8611L0.785952 19.3272C0.719962 19.3948 0.668797 19.4754 0.635732 19.5638C0.602667 19.6523 0.588427 19.7467 0.593924 19.841C0.599421 19.9353 0.624532 20.0274 0.667654 20.1114C0.710776 20.1955 0.77096 20.2696 0.844355 20.329C1.54687 20.9003 3.7297 23.2912 4.54266 24.1986C5.97176 26.1758 5.62207 27.7321 5.09238 30.0838C4.6557 31.7834 4.4207 33.5286 4.39224 35.2832C4.39224 39.7169 7.08644 43.8169 12.4002 47.4689C15.1541 49.2549 18.0535 50.8061 21.0676 52.1058C21.0764 52.1123 21.086 52.1186 21.0956 52.1257C21.2069 52.1976 21.3367 52.2354 21.4692 52.2345C21.4692 52.2345 21.4901 52.2354 21.5013 52.2354C21.6395 52.2344 21.7746 52.1936 21.8902 52.1177L21.8965 52.113C24.9168 50.8119 27.8221 49.2586 30.5815 47.4697C35.8946 43.8169 38.5887 39.7169 38.5887 35.2832C38.5602 33.5286 38.3252 31.7834 37.8885 30.0837C37.3589 27.7321 37.0093 26.1749 38.4383 24.1986C39.2521 23.2912 41.4341 20.9003 42.1374 20.329C42.2106 20.2694 42.2706 20.1952 42.3136 20.1112C42.3566 20.0272 42.3816 19.9352 42.3871 19.8409C42.3926 19.7467 42.3784 19.6524 42.3455 19.5639C42.3126 19.4755 42.2616 19.3949 42.1958 19.3272L35.901 12.8611ZM22.2063 2.02931H27.5658V5.9845H22.2063V2.02931ZM22.1958 18.0861H24.2483V23.2904H19.1504V18.0861L22.1958 18.0861ZM24.0777 31.7393C23.7632 31.1828 23.2732 30.7461 22.6844 30.4972C22.0956 30.2484 21.4409 30.2014 20.8226 30.3637C20.2043 30.5259 19.657 30.8883 19.2662 31.3942C18.8755 31.9001 18.6631 32.5211 18.6623 33.1604V38.475C18.4279 38.3846 18.1887 38.2878 17.9406 38.1774C17.7269 38.0822 17.5165 37.9997 17.3076 37.9278V24.6514H25.807V37.8725C25.4674 38.0038 25.1358 38.155 24.8139 38.3254C24.6931 38.3886 24.5732 38.447 24.453 38.503V33.1604C24.4534 32.6622 24.3241 32.1724 24.0777 31.7393ZM23.092 33.1604V38.9727C22.6486 39.0759 22.195 39.1285 21.7398 39.1296C21.1606 39.1254 20.5841 39.0515 20.0226 38.9095V33.1604C20.0226 33.1428 20.025 33.126 20.0258 33.1084C20.0261 33.0699 20.0286 33.0314 20.033 32.9931C20.0756 32.603 20.2661 32.244 20.5654 31.9901C20.8646 31.7361 21.2498 31.6065 21.6417 31.628C22.0336 31.6494 22.4024 31.8202 22.6721 32.1053C22.9419 32.3903 23.0922 32.7679 23.092 33.1604ZM5.75335 35.2832C5.78378 33.6291 6.00775 31.9842 6.42068 30.3822C6.96717 27.9545 7.43924 25.8581 5.62207 23.3696C5.60928 23.3512 5.59511 23.3338 5.57968 23.3176C5.47888 23.204 3.44244 20.9307 2.25021 19.7729L7.58488 14.2942L9.81814 16.4354C10.5341 17.0952 11.4577 17.4848 12.4299 17.5372C12.8537 17.5324 13.2722 17.4415 13.6598 17.27C14.0474 17.0984 14.3961 16.8499 14.6846 16.5394C16.229 14.9951 16.4283 12.0409 16.4323 10.671H20.8355V16.7251H18.4695C18.3801 16.725 18.2917 16.7425 18.2091 16.7767C18.1266 16.8108 18.0515 16.8609 17.9884 16.9241C17.9252 16.9873 17.8751 17.0623 17.841 17.1448C17.8068 17.2274 17.7893 17.3159 17.7894 17.4052V23.2904H16.9435L11.9314 18.2782C11.8037 18.1506 11.6306 18.0789 11.4501 18.0789C11.2696 18.0789 11.0964 18.1506 10.9688 18.2782C10.9393 18.3083 10.9125 18.341 10.8888 18.3758L8.14503 21.1204C8.01745 21.2481 7.94578 21.4212 7.94578 21.6017C7.94578 21.7822 8.01745 21.9553 8.14503 22.083L10.383 24.321C10.4461 24.3842 10.5211 24.4343 10.6036 24.4685C10.6862 24.5027 10.7746 24.5202 10.8639 24.5202C10.9532 24.5202 11.0417 24.5027 11.1242 24.4685C11.2067 24.4343 11.2817 24.3842 11.3448 24.321L13.6974 21.9685L15.9474 24.2186V28.6451L11.9314 24.629C11.8037 24.5015 11.6306 24.4298 11.4501 24.4298C11.2696 24.4298 11.0965 24.5015 10.9688 24.629C10.9395 24.6596 10.9127 24.6925 10.8888 24.7275L8.14503 27.4712C8.01744 27.5989 7.94576 27.772 7.94576 27.9525C7.94576 28.133 8.01744 28.3061 8.14503 28.4338L10.383 30.6719C10.446 30.7352 10.521 30.7854 10.6035 30.8196C10.6861 30.8538 10.7746 30.8713 10.8639 30.8711C10.9404 30.8706 11.0162 30.8568 11.088 30.8303C11.0451 30.8576 11.0051 30.8892 10.9687 30.9247C10.9392 30.9549 10.9125 30.9875 10.8887 31.0224L8.14503 33.7661C8.01744 33.8939 7.94578 34.0672 7.94578 34.2478C7.94578 34.4284 8.01744 34.6017 8.14503 34.7295L10.383 36.9667C10.4461 37.0299 10.5211 37.08 10.6036 37.1142C10.6861 37.1484 10.7746 37.166 10.8639 37.166C10.9532 37.166 11.0417 37.1484 11.1242 37.1142C11.2067 37.08 11.2817 37.0299 11.3448 36.9667L13.6974 34.6151L15.9474 36.8643V37.6117C15.7444 37.5888 15.5403 37.5771 15.336 37.5765C14.1046 37.638 12.9045 37.9854 11.8306 38.5911C11.2824 38.8677 10.7146 39.1036 10.1318 39.2968C9.76855 39.4013 9.39191 39.4517 9.01398 39.4464C8.16507 39.423 7.32432 39.2739 6.51914 39.0039C6.01793 37.8273 5.75754 36.5621 5.75335 35.2832ZM12.7307 21.0107L10.864 22.8767L9.5885 21.6012L11.4545 19.7345L12.7307 21.0107ZM11.9314 30.9247C11.8405 30.8344 11.726 30.7715 11.601 30.7433C11.476 30.7151 11.3456 30.7228 11.2248 30.7655C11.2685 30.7394 11.3089 30.708 11.3448 30.6719L13.6973 28.3202L15.9474 30.5703V34.94L11.9314 30.9247ZM12.7307 33.6573L10.864 35.5241L9.5885 34.2478L11.4545 32.3818L12.7307 33.6573ZM10.864 29.2292L9.5885 27.953L11.4545 26.087L12.7307 27.3616L10.864 29.2292ZM29.8101 46.3478C27.1656 48.0626 24.3826 49.5537 21.4901 50.8056C18.7644 49.6209 16.1325 48.231 13.6172 46.6479C14.2181 46.397 14.866 46.2788 15.5168 46.3015C16.1675 46.3241 16.8057 46.4871 17.3876 46.7792C17.8629 46.9903 18.3198 47.1664 18.764 47.3152C19.0408 47.408 19.3137 47.4912 19.5802 47.5601C19.9178 47.6474 20.2599 47.7163 20.6051 47.7665C21.213 47.8566 21.8295 47.8738 22.4415 47.8178C22.7958 47.7851 23.1472 47.7262 23.4929 47.6417C23.7779 47.5713 24.0587 47.4847 24.3339 47.3824C24.7161 47.2427 25.0885 47.0772 25.4485 46.8872C26.83 46.1238 28.4417 45.8883 29.9838 46.2246C29.9246 46.2654 29.8701 46.307 29.8101 46.3478ZM31.4249 45.154C28.7019 44.4394 26.8488 44.6108 24.8139 45.6829C24.6931 45.7469 24.5732 45.8053 24.453 45.8614C24.2309 45.965 24.0036 46.0571 23.7721 46.1374C23.5494 46.2164 23.3223 46.2824 23.092 46.335C22.078 46.5576 21.0256 46.534 20.0226 46.2662C19.8009 46.2126 19.5742 46.1489 19.3424 46.0749C19.1208 46.0038 18.8935 45.9229 18.6623 45.8325C18.4262 45.7421 18.1878 45.6453 17.9406 45.5357C15.5016 44.4514 13.7885 45.0452 12.3026 45.7286C11.6521 45.2468 11.0536 44.7587 10.4998 44.2642L10.5287 44.257C11.1752 44.0444 11.8051 43.7842 12.4131 43.4785C13.5629 42.9336 14.5959 42.4455 15.9474 42.6439C16.1774 42.6783 16.4047 42.729 16.6275 42.7959C16.8532 42.8639 17.0747 42.9451 17.2908 43.0391C17.3237 43.0536 17.3549 43.0647 17.3876 43.0792C17.8269 43.2736 18.2494 43.4392 18.6623 43.5816C18.8023 43.6297 18.9431 43.6778 19.0808 43.7201C19.1688 43.7465 19.2553 43.7681 19.3424 43.7938C19.5722 43.8577 19.7994 43.9145 20.0226 43.9618C21.0311 44.1884 22.0746 44.2115 23.092 44.0298C23.32 43.9874 23.5465 43.9305 23.7721 43.8649C23.925 43.8225 24.0778 43.7729 24.2298 43.7201C24.3043 43.6938 24.3786 43.6681 24.453 43.6393C24.7935 43.5084 25.1259 43.3574 25.4485 43.1872C25.5477 43.1344 25.6461 43.0872 25.7453 43.0391C25.987 42.9229 26.2349 42.82 26.4879 42.7311C26.7106 42.6525 26.9377 42.5867 27.168 42.5343C28.6412 42.2006 30.2366 42.4295 32.5987 43.2296C32.8547 43.316 33.103 43.389 33.3437 43.4488C32.7373 44.0535 32.0966 44.6228 31.4249 45.154ZM34.4263 42.2718C33.9532 42.2059 33.4875 42.0947 33.0356 41.9397C30.5783 41.1076 28.8019 40.8419 27.168 41.1412C26.9392 41.1828 26.7119 41.2357 26.4879 41.2996C26.2598 41.3652 26.0334 41.4413 25.807 41.5293C25.4675 41.6612 25.1359 41.8127 24.8139 41.983C24.6931 42.0462 24.5732 42.1046 24.453 42.1614C24.2995 42.2326 24.1449 42.299 23.9914 42.359C23.9185 42.3871 23.8458 42.4119 23.7721 42.4375C23.5493 42.5159 23.3222 42.5816 23.092 42.6343C22.0782 42.8575 21.0256 42.8342 20.0226 42.5663C19.8009 42.5127 19.5742 42.4489 19.3424 42.3751C19.3264 42.3695 19.3104 42.3646 19.2944 42.359C19.088 42.2918 18.8767 42.2157 18.6623 42.1325C18.4262 42.0422 18.1878 41.9454 17.9406 41.835C17.7237 41.7389 17.5141 41.6606 17.3076 41.5893C17.0846 41.5114 16.8576 41.4457 16.6275 41.3924C16.4034 41.3396 16.1762 41.3004 15.9474 41.2748C14.2845 41.0916 12.9995 41.6957 11.8305 42.2486C11.2822 42.5252 10.7145 42.7613 10.1318 42.9551C9.85689 43.0353 9.57359 43.0831 9.28763 43.0976C8.56321 42.3428 7.91859 41.5154 7.364 40.6283C7.90684 40.7415 8.45946 40.8012 9.01395 40.8067C9.52642 40.8124 10.0369 40.7421 10.5287 40.5978C11.1753 40.3862 11.8052 40.1265 12.4131 39.8209C13.3076 39.3082 14.3072 39.0061 15.336 38.9375C15.5407 38.9386 15.745 38.9547 15.9474 38.9856C16.1775 39.0196 16.4048 39.0704 16.6275 39.1376C16.8588 39.2079 17.0859 39.2915 17.3076 39.388C17.3348 39.3984 17.3612 39.4088 17.3876 39.4216C17.831 39.6178 18.2534 39.7841 18.6623 39.925C18.8935 40.0042 19.12 40.0737 19.3424 40.1362C19.5729 40.201 19.8001 40.257 20.0226 40.3027C20.5869 40.4245 21.1624 40.4875 21.7398 40.4906C22.1934 40.4902 22.646 40.4481 23.092 40.365C23.32 40.3234 23.5465 40.2683 23.7721 40.2042C24.0002 40.1401 24.2266 40.0658 24.453 39.9793C24.7935 39.8494 25.1259 39.6992 25.4485 39.5297C25.5692 39.4648 25.6885 39.4064 25.807 39.3513C26.0291 39.2466 26.2564 39.1531 26.4879 39.0712C26.7107 38.9928 26.9378 38.9271 27.168 38.8743C27.6069 38.7742 28.0557 38.724 28.5059 38.7247C29.9066 38.7861 31.2885 39.0719 32.5987 39.5713C33.4554 39.8712 34.3555 40.0288 35.2632 40.0378C35.5029 40.0381 35.7425 40.0252 35.9809 39.9994C35.5403 40.8071 35.0195 41.5684 34.4263 42.2718ZM37.4013 23.3176C37.3861 23.334 37.372 23.3514 37.359 23.3696C35.5418 25.8581 36.0138 27.9545 36.5604 30.3822C36.9732 31.9842 37.1972 33.6291 37.2277 35.2832C37.2239 36.3763 37.0311 37.4604 36.6579 38.4878C36.2041 38.6156 35.7347 38.6792 35.2632 38.6767C34.5042 38.6675 33.7517 38.5343 33.0356 38.2822C31.5863 37.7297 30.056 37.4193 28.5059 37.3636C28.0572 37.3632 27.6093 37.4039 27.168 37.4853V36.8691L29.4229 34.6151L31.7746 36.9667C31.9023 37.0943 32.0754 37.166 32.2559 37.166C32.4364 37.166 32.6095 37.0943 32.7371 36.9667L34.9753 34.7295C35.1028 34.6017 35.1745 34.4284 35.1745 34.2478C35.1745 34.0672 35.1028 33.894 34.9753 33.7661L32.2307 31.0232C32.2072 30.9879 32.1804 30.9549 32.1507 30.9248C32.1143 30.8892 32.0743 30.8576 32.0314 30.8303C32.1035 30.8567 32.1796 30.8705 32.2563 30.8711C32.3456 30.8712 32.434 30.8536 32.5166 30.8194C32.5991 30.7852 32.674 30.7351 32.7372 30.6719L34.9753 28.4338C35.1029 28.3061 35.1745 28.133 35.1745 27.9525C35.1745 27.7721 35.1029 27.5989 34.9753 27.4712L32.2307 24.7283C32.207 24.6929 32.1803 24.6597 32.1507 24.6291C32.023 24.5015 31.8499 24.4298 31.6694 24.4298C31.4889 24.4298 31.3157 24.5015 31.188 24.6291L27.168 28.6499V24.2234L29.4229 21.9685L31.7746 24.321C31.9023 24.4486 32.0754 24.5202 32.2558 24.5202C32.4363 24.5202 32.6094 24.4486 32.7371 24.321L34.9753 22.083C35.1028 21.9553 35.1744 21.7822 35.1744 21.6017C35.1744 21.4212 35.1028 21.2481 34.9753 21.1204L32.2307 18.3758C32.2072 18.3408 32.1804 18.3081 32.1507 18.2782C32.023 18.1506 31.8498 18.0789 31.6693 18.0789C31.4888 18.0789 31.3157 18.1506 31.188 18.2782L26.1758 23.2904H25.6093V17.4052C25.6094 17.3159 25.5918 17.2274 25.5577 17.1449C25.5235 17.0623 25.4735 16.9873 25.4103 16.9241C25.3471 16.8609 25.2721 16.8108 25.1895 16.7767C25.107 16.7425 25.0185 16.725 24.9292 16.7251H22.1958V10.6711H26.5495C26.5534 12.0409 26.7527 14.9951 28.2962 16.5394C28.5847 16.85 28.9334 17.0986 29.3211 17.2701C29.7087 17.4416 30.1272 17.5325 30.5511 17.5372C31.523 17.4851 32.4463 17.0957 33.162 16.4362L35.396 14.2942L40.7307 19.7729C39.5385 20.9307 37.5029 23.204 37.4013 23.3176ZM31.7746 30.6719C31.8106 30.708 31.8509 30.7394 31.8946 30.7655C31.7738 30.7228 31.6433 30.7151 31.5183 30.7433C31.3933 30.7715 31.2788 30.8344 31.188 30.9247L27.168 34.9448V30.5743L29.4229 28.3202L31.7746 30.6719ZM30.3895 27.3616L31.6649 26.087L33.5309 27.953L32.2563 29.2292L30.3895 27.3616ZM33.531 34.2478L32.2563 35.5241L30.3895 33.6573L31.665 32.3818L33.531 34.2478ZM30.3895 21.0107L31.6649 19.7345L33.5309 21.6012L32.2563 22.8767L30.3895 21.0107Z" fill="#004B81"/>
<path d="M56.8536 19.5967H56.8807L60.3966 25.7354H61.8273L65.3432 19.5967H65.3689V28.2087H67.5519V15.3569H65.3611L61.1383 23.0492H61.1035L56.8632 15.3569H54.6725V28.2087H56.8536V19.5967Z" fill="#004B81"/>
<path d="M76.3022 23.6048C76.3073 24.0286 76.245 24.4505 76.1174 24.8547C76.0145 25.1914 75.8428 25.5031 75.6133 25.7701C75.4112 25.9983 75.1648 26.1832 74.8891 26.3134C74.6212 26.4389 74.3288 26.5037 74.033 26.5031C73.7663 26.5103 73.5002 26.4736 73.2455 26.3942C73.0347 26.3207 72.8481 26.1906 72.7062 26.0181C72.5454 25.8106 72.4353 25.5684 72.3846 25.3108C72.3101 24.9473 72.2758 24.5768 72.2822 24.2058V19.3848H70.2602V24.7554C70.2481 25.3193 70.3289 25.8814 70.4995 26.419C70.6293 26.8434 70.8647 27.228 71.1836 27.5368C71.4795 27.8137 71.8319 28.0231 72.2166 28.1505C72.6487 28.2892 73.1006 28.3565 73.5544 28.3498C74.0705 28.352 74.5806 28.2391 75.0475 28.0193C75.5227 27.7947 75.942 27.4673 76.275 27.0607H76.3022V28.2081H78.3243V19.3848H76.3022V23.6048Z" fill="#004B81"/>
<path d="M82.8928 23.7735C82.8877 23.3845 82.9433 22.9971 83.0575 22.6253C83.1507 22.313 83.3088 22.0239 83.5216 21.7771C83.72 21.5532 83.9672 21.378 84.2442 21.265C84.5421 21.145 84.8608 21.0852 85.182 21.0889C85.4591 21.0816 85.7354 21.1233 85.9981 21.2121C86.2268 21.2954 86.4318 21.4333 86.5951 21.6138C86.7818 21.8302 86.9121 22.0894 86.9743 22.3684C87.0637 22.7504 87.105 23.142 87.0975 23.5342V28.2184H89.1196V23.0141C89.1196 21.7355 88.8329 20.7889 88.2595 20.1743C87.9514 19.8596 87.5796 19.6144 87.1691 19.4552C86.7585 19.2959 86.3186 19.2263 85.8789 19.2509C85.3156 19.2476 84.7581 19.3652 84.2442 19.5958C83.7334 19.824 83.281 20.1649 82.9207 20.5928H82.8928V19.3846H80.8715V28.208H82.8928V23.7735Z" fill="#004B81"/>
<path d="M92.7515 18.0669C92.9888 18.0676 93.2221 18.0055 93.4276 17.8869C93.6333 17.769 93.8047 17.5997 93.9253 17.3956C94.0777 17.1417 94.1394 16.8437 94.1003 16.5502C94.0612 16.2567 93.9237 15.9852 93.7101 15.7801C93.5859 15.6519 93.4368 15.5504 93.272 15.4818C93.1071 15.4133 92.93 15.3792 92.7515 15.3816C92.5714 15.3782 92.3925 15.4112 92.2254 15.4786C92.0584 15.5459 91.9066 15.6463 91.7793 15.7737C91.6533 15.898 91.5533 16.046 91.485 16.2093C91.4167 16.3725 91.3815 16.5477 91.3815 16.7247C91.3815 16.9016 91.4167 17.0768 91.485 17.2401C91.5533 17.4033 91.6533 17.5514 91.7793 17.6757C91.9067 17.8029 92.0585 17.9032 92.2255 17.9704C92.3926 18.0376 92.5715 18.0704 92.7515 18.0669Z" fill="#004B81"/>
<path d="M93.7486 19.3843H91.7267V28.2077H93.7486V19.3843Z" fill="#004B81"/>
<path d="M102.597 25.8589C102.474 25.9563 102.344 26.0438 102.208 26.1206C102.063 26.2006 101.912 26.2694 101.757 26.3263C101.589 26.3884 101.417 26.4348 101.241 26.4647C101.056 26.4966 100.868 26.5127 100.68 26.5127C100.203 26.5226 99.7318 26.405 99.3153 26.1718C98.9205 25.9484 98.5983 25.6162 98.387 25.2148C98.1702 24.7742 98.0572 24.2897 98.0567 23.7985C98.0561 23.3074 98.168 22.8227 98.3839 22.3815C98.5925 21.9822 98.9113 21.6512 99.3024 21.4277C99.7205 21.1959 100.193 21.0791 100.671 21.0892C101.106 21.0825 101.537 21.173 101.933 21.3541C102.304 21.5254 102.633 21.7752 102.898 22.0862L104.275 20.8948C103.836 20.3588 103.272 19.9398 102.632 19.6753C101.979 19.3951 101.275 19.2508 100.564 19.2512C99.7408 19.2368 98.9273 19.4344 98.2022 19.825C97.5205 20.1984 96.9587 20.7574 96.5819 21.4373C96.1985 22.169 95.9978 22.9826 95.997 23.8087C95.9961 24.6349 96.1951 25.4489 96.577 26.1814C96.9475 26.8578 97.5036 27.4142 98.1798 27.785C98.8904 28.1681 99.6874 28.3626 100.495 28.3499C101.254 28.3601 102.008 28.2125 102.707 27.9162C103.318 27.665 103.865 27.2822 104.311 26.7952L102.914 25.5589C102.817 25.6673 102.711 25.7676 102.597 25.8589Z" fill="#004B81"/>
<path d="M107.29 18.0669C107.527 18.0676 107.761 18.0055 107.967 17.8869C108.172 17.7689 108.344 17.5997 108.465 17.3956C108.616 17.1415 108.678 16.8435 108.639 16.5501C108.599 16.2567 108.462 15.9853 108.248 15.7801C108.124 15.6519 107.975 15.5504 107.81 15.4819C107.645 15.4134 107.468 15.3792 107.29 15.3816C107.11 15.3782 106.931 15.4112 106.764 15.4786C106.597 15.5459 106.446 15.6463 106.318 15.7737C106.192 15.8979 106.092 16.0459 106.024 16.2091C105.955 16.3724 105.92 16.5477 105.92 16.7247C105.92 16.9017 105.955 17.0769 106.024 17.2402C106.092 17.4035 106.192 17.5515 106.318 17.6757C106.446 17.8029 106.597 17.9032 106.764 17.9704C106.931 18.0376 107.11 18.0704 107.29 18.0669Z" fill="#004B81"/>
<path d="M108.288 19.3843H106.266V28.2077H108.288V19.3843Z" fill="#004B81"/>
<path d="M119.604 21.4589C119.426 21.1262 119.205 20.8186 118.946 20.5443C118.692 20.2753 118.404 20.041 118.089 19.8474C117.771 19.6528 117.426 19.5046 117.065 19.4073C116.688 19.3018 116.299 19.249 115.907 19.2504C115.38 19.2256 114.854 19.3209 114.369 19.5291C113.884 19.7373 113.453 20.053 113.108 20.4523H113.072V19.3841H111.05V31.7866H113.072V27.1224H113.1C113.438 27.5294 113.866 27.8521 114.35 28.0652C114.835 28.2782 115.362 28.3757 115.891 28.3499C116.359 28.3524 116.826 28.282 117.273 28.1411C117.698 28.0096 118.099 27.8064 118.456 27.5401C118.807 27.2789 119.115 26.9634 119.367 26.6055C119.632 26.2227 119.831 25.7984 119.957 25.3501C120.099 24.858 120.169 24.3482 120.167 23.8362C120.168 23.4108 120.118 22.9867 120.02 22.5727C119.93 22.1853 119.79 21.811 119.604 21.4589ZM117.401 25.7669C117.166 26.0133 116.882 26.2071 116.567 26.3357C116.252 26.4642 115.913 26.5245 115.573 26.5127C115.232 26.5209 114.894 26.4593 114.578 26.3316C114.262 26.2039 113.975 26.0128 113.736 25.7702C113.488 25.5167 113.294 25.2152 113.166 24.8842C113.038 24.5531 112.98 24.1995 112.993 23.845C112.969 23.1196 113.227 22.4132 113.713 21.8742C113.95 21.6281 114.234 21.4319 114.547 21.297C114.861 21.162 115.198 21.0912 115.54 21.0885C115.881 21.0858 116.22 21.1514 116.535 21.2814C116.851 21.4113 117.138 21.6031 117.378 21.8454C117.627 22.1135 117.819 22.4284 117.944 22.7717C118.07 23.1151 118.125 23.4799 118.108 23.845C118.135 24.5538 117.881 25.2447 117.401 25.7669Z" fill="#004B81"/>
<path d="M122.528 26.6059C122.781 26.9646 123.087 27.2821 123.437 27.5469C123.794 27.8136 124.195 28.0169 124.621 28.1478C125.069 28.2844 125.535 28.3526 126.004 28.3502C126.545 28.3745 127.084 28.2664 127.573 28.0353C128.063 27.8043 128.488 27.4573 128.814 27.0244H128.839V28.2086H130.775V19.3844H128.752V20.4446H128.717C128.383 20.0505 127.963 19.738 127.49 19.5311C127.016 19.3242 126.502 19.2283 125.986 19.2508C125.406 19.2462 124.831 19.364 124.3 19.5964C123.789 19.815 123.329 20.1367 122.948 20.5415C122.557 20.9639 122.254 21.4593 122.055 21.9993C121.835 22.5866 121.724 23.2093 121.729 23.8365C121.725 24.3484 121.795 24.8582 121.936 25.3504C122.062 25.7991 122.262 26.2235 122.528 26.6059ZM123.985 22.6995C124.103 22.3738 124.288 22.0763 124.528 21.8257C124.759 21.593 125.034 21.4086 125.338 21.2832C125.652 21.1528 125.989 21.0867 126.33 21.0887C126.668 21.0808 127.004 21.1477 127.313 21.2847C127.622 21.4216 127.898 21.6252 128.119 21.8809C128.598 22.4209 128.853 23.1236 128.831 23.8453C128.844 24.1982 128.787 24.5502 128.661 24.8803C128.536 25.2105 128.346 25.5121 128.101 25.7673C127.622 26.2449 126.973 26.5131 126.297 26.5131C125.621 26.5131 124.972 26.2449 124.493 25.7673C124.013 25.245 123.758 24.5542 123.785 23.8453C123.782 23.4545 123.85 23.0663 123.985 22.6995Z" fill="#004B81"/>
<path d="M135.475 14.8872H133.451V28.2075H135.475V14.8872Z" fill="#004B81"/>
<path d="M140.39 19.3843H138.369V28.2077H140.39V19.3843Z" fill="#004B81"/>
<path d="M139.393 18.0669C139.63 18.0676 139.863 18.0055 140.069 17.8869C140.275 17.769 140.446 17.5997 140.567 17.3956C140.69 17.1937 140.755 16.9611 140.753 16.7243C140.755 16.5477 140.72 16.3727 140.651 16.2102C140.582 16.0478 140.481 15.9013 140.352 15.7801C140.228 15.6519 140.079 15.5504 139.914 15.4819C139.749 15.4134 139.571 15.3792 139.393 15.3816C139.213 15.3783 139.034 15.4113 138.867 15.4787C138.7 15.546 138.548 15.6464 138.421 15.7737C138.295 15.898 138.195 16.046 138.126 16.2093C138.058 16.3725 138.023 16.5477 138.023 16.7247C138.023 16.9016 138.058 17.0768 138.126 17.2401C138.195 17.4033 138.295 17.5514 138.421 17.6756C138.548 17.8028 138.7 17.903 138.867 17.9703C139.034 18.0375 139.213 18.0704 139.393 18.0669Z" fill="#004B81"/>
<path d="M144.332 27.5466C144.689 27.8136 145.089 28.0169 145.516 28.1475C145.964 28.284 146.43 28.3523 146.899 28.3499C147.449 28.3787 147.998 28.273 148.498 28.042C148.998 27.811 149.434 27.4616 149.769 27.024H149.804V28.2083H151.739V14.8872H149.716V20.4443H149.671C149.327 20.0458 148.897 19.7312 148.413 19.5244C147.929 19.3177 147.405 19.2242 146.879 19.2513C146.299 19.2463 145.725 19.3638 145.193 19.5961C144.682 19.8153 144.222 20.1369 143.84 20.5411C143.451 20.9643 143.148 21.4596 142.949 21.999C142.728 22.5861 142.618 23.2089 142.623 23.8362C142.62 24.3482 142.69 24.858 142.831 25.3501C142.957 25.7984 143.156 26.2227 143.422 26.6055C143.675 26.964 143.982 27.2814 144.332 27.5466ZM144.88 22.6992C144.992 22.3809 145.17 22.09 145.403 21.8458C145.636 21.6017 145.918 21.4098 146.231 21.2829C146.546 21.1525 146.884 21.0864 147.225 21.0885C147.572 21.0778 147.917 21.1426 148.236 21.2782C148.555 21.4139 148.842 21.6172 149.075 21.8742C149.561 22.413 149.82 23.1194 149.796 23.845C149.81 24.1995 149.752 24.5531 149.624 24.8842C149.496 25.2152 149.302 25.5167 149.054 25.7702C148.815 26.0127 148.528 26.2037 148.212 26.3314C147.896 26.4591 147.557 26.5208 147.217 26.5127C146.877 26.5247 146.538 26.4645 146.222 26.3359C145.907 26.2074 145.623 26.0135 145.388 25.767C144.907 25.2449 144.653 24.5539 144.68 23.845C144.676 23.4541 144.744 23.0658 144.88 22.6992Z" fill="#004B81"/>
<path d="M160.846 20.4446H160.811C160.477 20.0505 160.058 19.7381 159.585 19.5311C159.112 19.3242 158.597 19.2283 158.082 19.2508C157.501 19.2463 156.925 19.3641 156.393 19.5964C155.883 19.8155 155.424 20.1372 155.043 20.5415C154.653 20.9638 154.349 21.4592 154.151 21.9993C153.93 22.5864 153.819 23.2092 153.824 23.8365C153.82 24.3484 153.89 24.8582 154.031 25.3504C154.157 25.7988 154.358 26.2231 154.623 26.6059C154.876 26.9645 155.183 27.2819 155.533 27.5469C155.89 27.8139 156.29 28.0172 156.716 28.1478C157.165 28.2843 157.631 28.3526 158.099 28.3502C158.64 28.3746 159.179 28.2665 159.668 28.0355C160.158 27.8044 160.583 27.4573 160.908 27.0244H160.936V28.2086H162.87V19.3844H160.846V20.4446ZM160.197 25.7673C159.718 26.2449 159.07 26.5131 158.393 26.5131C157.717 26.5131 157.068 26.2449 156.589 25.7673C156.109 25.2453 155.855 24.5542 155.883 23.8453C155.879 23.4545 155.946 23.0663 156.08 22.6995C156.193 22.3812 156.371 22.0904 156.605 21.8463C156.838 21.6021 157.12 21.4102 157.433 21.2832C157.748 21.1528 158.086 21.0866 158.427 21.0887C158.765 21.0811 159.1 21.1481 159.409 21.285C159.718 21.422 159.993 21.6254 160.214 21.8809C160.694 22.4207 160.948 23.1236 160.926 23.8453C160.939 24.1981 160.882 24.55 160.756 24.8801C160.631 25.2103 160.441 25.5119 160.197 25.7673Z" fill="#004B81"/>
<path d="M171.978 14.8872V20.4443H171.935C171.591 20.046 171.161 19.7315 170.677 19.5248C170.193 19.318 169.669 19.2245 169.143 19.2513C168.563 19.2464 167.988 19.3639 167.456 19.5961C166.945 19.8147 166.485 20.1364 166.104 20.5411C165.714 20.9639 165.411 21.4593 165.212 21.999C164.99 22.586 164.879 23.2088 164.884 23.8362C164.881 24.3482 164.952 24.858 165.094 25.3501C165.219 25.7986 165.419 26.2229 165.684 26.6055C165.938 26.964 166.245 27.2813 166.595 27.5466C166.952 27.8136 167.352 28.0169 167.778 28.1475C168.226 28.2839 168.692 28.3522 169.16 28.3499C169.71 28.3789 170.26 28.2733 170.76 28.0422C171.26 27.8112 171.697 27.4617 172.032 27.0241H172.066V28.2083H174V14.8872H171.978ZM171.315 25.7702C171.076 26.0128 170.789 26.2039 170.473 26.3316C170.157 26.4594 169.818 26.521 169.478 26.5127C169.138 26.5246 168.799 26.4642 168.484 26.3357C168.169 26.2072 167.885 26.0133 167.65 25.767C167.17 25.2448 166.916 24.5539 166.943 23.845C166.939 23.4541 167.006 23.0658 167.142 22.6992C167.254 22.3809 167.433 22.09 167.666 21.8458C167.899 21.6016 168.181 21.4098 168.493 21.2829C168.808 21.1525 169.146 21.0864 169.487 21.0885C169.834 21.0778 170.179 21.1425 170.499 21.2782C170.818 21.4138 171.104 21.6172 171.337 21.8742C171.823 22.4131 172.081 23.1196 172.057 23.8449C172.071 24.1995 172.012 24.5531 171.885 24.8842C171.757 25.2152 171.563 25.5167 171.315 25.7702Z" fill="#004B81"/>
<path d="M60.9792 38.5356H60.9361C60.5924 38.1374 60.1623 37.8229 59.6786 37.6161C59.1949 37.4094 58.6704 37.3158 58.1451 37.3426C57.5643 37.3376 56.989 37.4552 56.4567 37.6875C55.9461 37.9058 55.4862 38.2276 55.1061 38.6324C54.7154 39.0549 54.4119 39.5504 54.213 40.0904C53.9914 40.6776 53.8802 41.3007 53.885 41.9283C53.8826 42.44 53.9529 42.9495 54.0939 43.4415C54.2201 43.8898 54.4199 44.314 54.6852 44.6969C54.939 45.0553 55.2461 45.3729 55.5958 45.6387C55.9526 45.9056 56.353 46.1086 56.7792 46.2388C57.227 46.3753 57.6929 46.4436 58.1611 46.4413C58.7114 46.4702 59.2604 46.3647 59.7608 46.1338C60.2612 45.9029 60.6978 45.5537 61.0329 45.1162H61.0674V46.2996H63.0013V32.9785H60.9792L60.9792 38.5356ZM60.3159 43.8615C60.0766 44.1041 59.7902 44.2952 59.4742 44.4229C59.1582 44.5506 58.8194 44.6123 58.4787 44.604C58.1387 44.6158 57.8001 44.5555 57.4851 44.427C57.1701 44.2984 56.8859 44.1047 56.6512 43.8583C56.1713 43.336 55.9173 42.6451 55.9446 41.9363C55.9405 41.5454 56.008 41.1571 56.1439 40.7905C56.2557 40.4722 56.4339 40.1812 56.6668 39.937C56.8997 39.6928 57.1818 39.501 57.4945 39.3742C57.8095 39.2438 58.1474 39.1777 58.4883 39.1798C58.8352 39.1691 59.1802 39.2339 59.4996 39.3695C59.819 39.5052 60.1051 39.7086 60.3383 39.9656C60.8239 40.5048 61.082 41.211 61.0585 41.9363C61.0725 42.2908 61.0138 42.6445 60.8861 42.9756C60.7584 43.3067 60.5644 43.6081 60.3159 43.8615Z" fill="#004B81"/>
<path d="M71.6678 37.9156C71.0656 37.585 70.3977 37.392 69.712 37.3503C69.0263 37.3087 68.34 37.4195 67.7022 37.6747C67.1868 37.8841 66.7204 38.198 66.3324 38.5965C65.938 39.01 65.6319 39.4995 65.433 40.0352C65.2103 40.6255 65.0994 41.252 65.1057 41.8828C65.0903 42.7206 65.2942 43.5478 65.697 44.2825C66.0725 44.9598 66.6335 45.5158 67.3141 45.8852C68.0232 46.2615 68.8159 46.4526 69.6186 46.4406C70.369 46.456 71.1134 46.3025 71.7966 45.9916C72.3989 45.7107 72.927 45.2924 73.3385 44.7705L71.9247 43.5614C71.6669 43.897 71.3329 44.1665 70.9505 44.3476C70.568 44.5287 70.148 44.6164 69.7251 44.6033C69.1299 44.6212 68.5472 44.4301 68.0782 44.0632C67.6203 43.6926 67.3112 43.1693 67.2077 42.5893H73.6385C73.6775 42.3236 73.6952 42.0552 73.6915 41.7867C73.7054 40.9928 73.527 40.2074 73.1712 39.4975C72.8328 38.8365 72.3108 38.2872 71.6678 37.9156ZM67.2429 40.9546C67.3555 40.4354 67.6459 39.9718 68.0639 39.6439C68.4814 39.3314 68.9916 39.168 69.5129 39.1798C69.8633 39.1736 70.2101 39.2513 70.5244 39.4063C70.8139 39.5477 71.063 39.7599 71.2485 40.0233C71.4432 40.3049 71.5828 40.621 71.6598 40.9546L67.2429 40.9546Z" fill="#004B81"/>
<path d="M84.5798 35.9369C85.2453 35.553 86.0026 35.3574 86.7707 35.3712C87.4351 35.3715 88.089 35.5362 88.6743 35.8505C89.274 36.1657 89.8022 36.6012 90.2258 37.1299L91.8317 35.7696C91.229 35.0033 90.4606 34.3836 89.584 33.9569C88.7075 33.5301 87.7456 33.3076 86.7707 33.306C86.0026 33.2992 85.2381 33.412 84.5046 33.6404C83.8483 33.8429 83.2336 34.1616 82.6899 34.5814C81.6454 35.4013 80.8965 36.5392 80.5567 37.8228C80.3741 38.5074 80.2834 39.2132 80.287 39.9217C80.28 40.6982 80.3931 41.4713 80.6222 42.2133C80.8225 42.8716 81.1397 43.4885 81.5585 44.0345C81.9588 44.543 82.4377 44.9844 82.9772 45.342C83.5238 45.7035 84.1245 45.9758 84.7567 46.1485C85.413 46.3276 86.0905 46.4172 86.7707 46.415C87.7743 46.4309 88.7669 46.2032 89.6633 45.7516C90.5055 45.3232 91.2452 44.7178 91.8317 43.977L90.2258 42.607C89.8079 43.1319 89.2877 43.5664 88.6967 43.8841C88.1041 44.1995 87.442 44.3618 86.7707 44.3561C86.0112 44.3678 85.2625 44.1758 84.6023 43.8001C83.9647 43.4299 83.4452 42.8863 83.1043 42.2325C82.7362 41.5187 82.5511 40.7247 82.5659 39.9217C82.5491 39.0957 82.7308 38.2777 83.0956 37.5364C83.4266 36.8718 83.9418 36.3166 84.5798 35.9369Z" fill="#004B81"/>
<path d="M101.053 33.624L98.8268 33.6322L96.7521 36.2478H98.8108L101.053 33.624Z" fill="#004B81"/>
<path d="M100.233 37.9127C99.4953 37.5239 98.6715 37.3276 97.8379 37.3422C96.9888 37.326 96.1501 37.5314 95.4046 37.9383C94.7161 38.315 94.1495 38.8804 93.7715 39.5682C93.3842 40.2838 93.1877 41.0871 93.2009 41.9007C93.1964 42.5173 93.3105 43.1291 93.5371 43.7026C93.7473 44.2418 94.0641 44.733 94.4684 45.1471C94.8869 45.5633 95.3882 45.8869 95.9399 46.0968C96.5453 46.3297 97.1893 46.4464 97.8379 46.4409C98.6696 46.4546 99.4914 46.2593 100.228 45.8728C100.919 45.5028 101.49 44.9445 101.876 44.2628C102.278 43.5414 102.482 42.7264 102.467 41.9007C102.482 41.0707 102.278 40.2513 101.876 39.525C101.493 38.8418 100.923 38.2824 100.233 37.9127ZM99.667 43.8388C99.426 44.0822 99.139 44.2752 98.8226 44.4065C98.5063 44.5378 98.1669 44.6049 97.8244 44.6037C97.4818 44.6025 97.143 44.5331 96.8276 44.3995C96.5121 44.266 96.2264 44.071 95.9872 43.8259C95.5006 43.3049 95.2387 42.6133 95.2581 41.9007C95.2359 41.1843 95.493 40.4874 95.975 39.9571C96.2111 39.7008 96.4998 39.4987 96.8214 39.3646C97.1429 39.2304 97.4897 39.1676 97.8379 39.1802C98.1804 39.1706 98.5211 39.2333 98.8377 39.3641C99.1544 39.495 99.4399 39.691 99.6758 39.9395C99.9224 40.2012 100.114 40.5094 100.24 40.8462C100.366 41.1829 100.424 41.5414 100.41 41.9007C100.422 42.257 100.362 42.612 100.234 42.9449C100.107 43.2778 99.914 43.5817 99.667 43.8388Z" fill="#004B81"/>
<path d="M107.853 37.7165C107.365 37.9792 106.943 38.3497 106.62 38.8H106.593V37.4757H104.571V46.2999H106.593V42.1127C106.586 41.6661 106.681 41.2238 106.871 40.8196C107.053 40.4426 107.342 40.1276 107.701 39.9139C108.095 39.6819 108.546 39.5649 109.003 39.5761C109.181 39.5761 109.385 39.5866 109.615 39.6034V37.3509C109.532 37.3437 109.449 37.3408 109.367 37.3421C108.839 37.3405 108.319 37.4691 107.853 37.7165Z" fill="#004B81"/>
<path d="M117.612 38.5356H117.568C117.225 38.1372 116.795 37.8226 116.311 37.6158C115.827 37.409 115.302 37.3156 114.777 37.3426C114.196 37.3377 113.622 37.4552 113.09 37.6875C112.579 37.9066 112.119 38.2283 111.738 38.6324C111.348 39.0558 111.046 39.5511 110.846 40.0904C110.626 40.6778 110.515 41.3008 110.52 41.9283C110.517 42.44 110.587 42.9495 110.728 43.4415C110.854 43.8896 111.054 44.3138 111.318 44.6969C111.572 45.0556 111.879 45.3732 112.23 45.6387C112.586 45.9059 112.987 46.1089 113.413 46.2388C113.861 46.3754 114.327 46.4436 114.796 46.4413C115.346 46.47 115.895 46.3644 116.395 46.1335C116.895 45.9027 117.331 45.5535 117.666 45.1162H117.701V46.2996H119.636V32.9785H117.612V38.5356ZM116.951 43.8615C116.712 44.104 116.425 44.295 116.109 44.4227C115.793 44.5504 115.454 44.6121 115.113 44.604C114.773 44.616 114.434 44.5557 114.119 44.4272C113.804 44.2987 113.519 44.1048 113.284 43.8583C112.804 43.336 112.55 42.6451 112.578 41.9363C112.574 41.5454 112.641 41.1571 112.777 40.7905C112.889 40.4722 113.067 40.1812 113.3 39.937C113.533 39.6928 113.815 39.501 114.128 39.3742C114.443 39.2437 114.781 39.1776 115.122 39.1798C115.469 39.169 115.814 39.2338 116.133 39.3694C116.452 39.5051 116.738 39.7085 116.971 39.9656C117.458 40.5044 117.716 41.2108 117.693 41.9363C117.707 42.2908 117.648 42.6444 117.521 42.9754C117.393 43.3064 117.2 43.608 116.951 43.8615Z" fill="#004B81"/>
<path d="M128.77 37.9127C128.033 37.5239 127.209 37.3276 126.376 37.3422C125.527 37.3259 124.688 37.5314 123.942 37.9384C123.254 38.3148 122.687 38.8803 122.309 39.5683C121.922 40.2838 121.725 41.0872 121.739 41.9008C121.735 42.5173 121.849 43.1289 122.074 43.7027C122.285 44.2419 122.602 44.7331 123.006 45.147C123.424 45.5637 123.925 45.8874 124.477 46.0968C125.083 46.3298 125.727 46.4465 126.376 46.4409C127.207 46.4552 128.029 46.2598 128.765 45.8727C129.456 45.5034 130.028 44.945 130.413 44.2628C130.816 43.5416 131.02 42.7266 131.005 41.9008C131.02 41.0707 130.816 40.2512 130.413 39.5251C130.031 38.8416 129.461 38.282 128.77 37.9127ZM128.205 43.8387C127.964 44.0821 127.677 44.2751 127.361 44.4065C127.044 44.5378 126.705 44.6049 126.362 44.6037C126.02 44.6025 125.681 44.5331 125.365 44.3996C125.05 44.2661 124.764 44.0711 124.525 43.826C124.038 43.3052 123.776 42.6134 123.796 41.9008C123.773 41.1844 124.03 40.4873 124.513 39.9571C124.749 39.7008 125.038 39.4985 125.359 39.3644C125.681 39.2303 126.028 39.1674 126.376 39.1801C126.718 39.1707 127.059 39.2334 127.375 39.3642C127.692 39.4951 127.977 39.6911 128.213 39.9396C128.46 40.2012 128.652 40.5094 128.778 40.8462C128.904 41.1829 128.962 41.5415 128.947 41.9008C128.959 42.257 128.9 42.6121 128.772 42.9449C128.645 43.2777 128.452 43.5817 128.205 43.8387Z" fill="#004B81"/>
<path d="M141.424 39.159C141.175 38.7912 140.869 38.4645 140.519 38.1907C140.165 37.9154 139.766 37.7029 139.34 37.5626C138.897 37.415 138.432 37.3404 137.965 37.3418C137.44 37.3151 136.915 37.4087 136.431 37.6156C135.948 37.8225 135.517 38.1372 135.174 38.5356H135.13V32.9785H133.108V46.2996H135.042V45.1161H135.077C135.412 45.5536 135.849 45.9028 136.349 46.1337C136.849 46.3646 137.398 46.4701 137.949 46.4412C138.531 46.4458 139.108 46.3365 139.648 46.1195C140.159 45.9163 140.621 45.6076 141.004 45.2138C141.396 44.8013 141.699 44.3138 141.897 43.7807C142.12 43.189 142.231 42.5609 142.225 41.9284C142.227 41.4219 142.156 40.9177 142.015 40.4312C141.888 39.9782 141.688 39.5486 141.424 39.159ZM139.458 43.8582C139.224 44.1046 138.94 44.2985 138.625 44.427C138.31 44.5556 137.971 44.6159 137.631 44.6041C137.29 44.6123 136.951 44.5507 136.635 44.423C136.32 44.2952 136.033 44.1041 135.794 43.8615C135.546 43.608 135.352 43.3066 135.224 42.9755C135.096 42.6445 135.037 42.2909 135.051 41.9364C135.049 41.6359 135.089 41.3366 135.17 41.0473C135.318 40.5172 135.628 40.0468 136.057 39.7022C136.27 39.5332 136.511 39.4024 136.768 39.3157C137.043 39.2245 137.332 39.1786 137.621 39.1798C137.96 39.1715 138.297 39.2346 138.609 39.3651C138.922 39.4955 139.204 39.6903 139.436 39.9368C139.685 40.2049 139.877 40.5198 140.002 40.8631C140.128 41.2065 140.183 41.5713 140.166 41.9364C140.193 42.6452 139.939 43.336 139.458 43.8582Z" fill="#004B81"/>
<path d="M150.81 38.5354H150.776C150.442 38.1413 150.022 37.8288 149.548 37.6219C149.075 37.415 148.56 37.3191 148.044 37.3416C147.464 37.337 146.89 37.4547 146.358 37.6872C145.847 37.9058 145.387 38.2275 145.007 38.6322C144.616 39.0547 144.312 39.5501 144.113 40.0901C143.893 40.6777 143.782 41.3007 143.787 41.9282C143.784 42.4398 143.854 42.9493 143.995 43.4412C144.12 43.8899 144.32 44.3144 144.587 44.6967C144.839 45.0557 145.146 45.3734 145.496 45.6385C145.853 45.9052 146.253 46.1082 146.679 46.2386C147.127 46.3751 147.594 46.4433 148.063 46.441C148.603 46.4652 149.142 46.3572 149.631 46.1263C150.121 45.8954 150.547 45.5485 150.872 45.1159H150.897V46.2993H152.833V37.4752H150.81V38.5354ZM150.16 43.858C149.681 44.3357 149.032 44.604 148.355 44.604C147.679 44.604 147.03 44.3357 146.551 43.858C146.071 43.3357 145.817 42.6449 145.845 41.9362C145.841 41.5454 145.908 41.1572 146.043 40.7902C146.162 40.4646 146.347 40.1671 146.586 39.9164C146.818 39.6838 147.093 39.4994 147.396 39.374C147.71 39.2437 148.048 39.1776 148.388 39.1796C148.726 39.1717 149.062 39.2386 149.371 39.3755C149.681 39.5124 149.956 39.716 150.177 39.9717C150.657 40.5117 150.911 41.2145 150.889 41.9362C150.903 42.2891 150.845 42.641 150.72 42.9712C150.594 43.3013 150.404 43.6029 150.16 43.858Z" fill="#004B81"/>
</svg>
