<?xml version="1.0" encoding="utf-8"?>
<svg xmlns="http://www.w3.org/2000/svg" viewBox="88.485 52.897 80 69.357" width="80px" height="69.357px" xmlns:bx="https://boxy-svg.com"><defs><bx:export><bx:file format="svg" path="Sin título.svg"/></bx:export></defs><path d="M 126.534 70.848 L 128.485 70.848 L 130.276 73.868 C 130.687 74.546 131.274 75.1 131.973 75.472 C 132.748 75.891 133.619 76.103 134.5 76.087 L 137.493 76.087 L 137.493 71.677 L 136.157 71.677 C 135.935 71.691 135.713 71.645 135.515 71.542 C 135.356 71.437 135.219 71.301 135.114 71.141 L 134.072 69.511 C 134.941 68.892 135.659 68.083 136.17 67.146 C 136.72 66.134 136.991 64.995 136.956 63.844 C 136.92 62.693 136.58 61.573 135.97 60.597 C 135.31 59.59 134.397 58.774 133.323 58.231 C 132.181 57.652 130.915 57.359 129.634 57.376 L 120.76 57.376 L 120.76 75.239 C 120.76 75.239 124.801 75.312 126.534 76.693 L 126.534 70.848 Z M 126.534 61.893 L 129.047 61.893 C 129.404 61.893 129.755 61.99 130.062 62.174 C 130.383 62.361 130.65 62.628 130.837 62.949 C 131.042 63.311 131.144 63.723 131.132 64.139 C 131.141 64.563 131.04 64.982 130.837 65.354 C 130.656 65.687 130.388 65.964 130.062 66.156 C 129.755 66.34 129.404 66.437 129.047 66.437 L 126.534 66.437 L 126.534 61.893 Z" style="fill: rgb(255, 255, 255);"/><path d="M 112.483 79.369 C 111.548 80.277 110.807 81.365 110.308 82.569 C 109.273 85.132 109.273 87.996 110.308 90.56 C 110.815 91.773 111.564 92.871 112.509 93.785 C 113.455 94.7 114.577 95.412 115.806 95.878 C 118.534 96.876 121.527 96.876 124.255 95.878 C 125.485 95.412 126.607 94.7 127.552 93.786 C 128.498 92.871 129.246 91.774 129.753 90.56 C 130.788 87.997 130.788 85.132 129.753 82.569 C 129.253 81.366 128.513 80.277 127.579 79.369 C 126.624 78.45 125.494 77.734 124.255 77.264 C 121.527 76.266 118.534 76.266 115.806 77.264 C 114.568 77.734 113.437 78.45 112.483 79.369 Z M 116.762 82.859 C 117.143 82.385 117.626 82.001 118.175 81.738 C 118.758 81.473 119.39 81.336 120.031 81.336 C 120.671 81.336 121.304 81.473 121.887 81.738 C 122.436 82.001 122.918 82.384 123.299 82.859 C 123.697 83.358 123.997 83.926 124.186 84.535 C 124.592 85.862 124.592 87.28 124.186 88.607 C 123.997 89.216 123.697 89.784 123.299 90.283 C 122.919 90.758 122.436 91.141 121.887 91.405 C 121.304 91.669 120.671 91.807 120.031 91.807 C 119.39 91.807 118.758 91.669 118.175 91.405 C 117.626 91.141 117.143 90.758 116.762 90.283 C 116.364 89.785 116.064 89.216 115.876 88.607 C 115.469 87.28 115.469 85.862 115.876 84.535 C 116.064 83.926 116.365 83.358 116.762 82.859 Z" style="fill: rgb(255, 255, 255);"/><path d="M 120.378 108.926 C 120.415 107.395 120.061 105.881 119.349 104.526 C 118.699 103.318 117.73 102.311 116.548 101.614 C 115.348 100.913 113.98 100.552 112.591 100.569 C 112.048 100.567 111.507 100.625 110.977 100.743 C 110.487 100.853 110.017 101.04 109.585 101.297 C 109.164 101.549 108.79 101.87 108.477 102.247 L 108.286 102.247 L 108.286 94.338 C 107.579 95.318 106.671 96.137 105.623 96.741 C 104.576 97.345 103.412 97.72 102.209 97.841 L 102.209 108.862 C 102.17 110.497 102.563 112.113 103.349 113.547 C 104.097 114.865 105.206 115.941 106.546 116.649 C 108.011 117.41 109.643 117.791 111.294 117.757 C 112.562 117.775 113.822 117.56 115.013 117.123 C 116.08 116.728 117.051 116.113 117.864 115.316 C 118.677 114.52 119.312 113.561 119.729 112.502 C 120.173 111.363 120.394 110.148 120.378 108.926 Z M 113.81 110.872 C 113.588 111.345 113.237 111.745 112.797 112.027 C 112.463 112.238 112.088 112.376 111.697 112.432 C 111.306 112.488 110.908 112.461 110.528 112.351 C 110.149 112.242 109.796 112.054 109.495 111.799 C 109.193 111.544 108.948 111.228 108.778 110.872 C 108.527 110.343 108.403 109.764 108.413 109.179 C 108.401 108.619 108.526 108.065 108.778 107.564 C 109.013 107.108 109.368 106.725 109.806 106.457 C 110.258 106.187 110.775 106.045 111.301 106.045 C 111.828 106.045 112.345 106.187 112.797 106.457 C 113.227 106.729 113.577 107.111 113.81 107.564 C 114.061 108.065 114.186 108.619 114.174 109.179 C 114.184 109.764 114.06 110.343 113.81 110.872 Z" style="fill: rgb(255, 255, 255);"/><path d="M 107.496 92.763 C 108.218 91.446 108.579 89.962 108.543 88.46 L 108.543 76.019 C 106.586 75.337 104.828 74.18 103.426 72.654 C 102.867 72.005 102.4 71.282 102.038 70.506 C 101.988 70.4 101.951 70.289 101.906 70.18 C 101.579 70.568 101.18 70.888 100.732 71.125 C 100.175 71.412 99.559 71.569 98.932 71.581 C 98.306 71.613 97.681 71.5 97.106 71.252 C 96.56 71.014 96.075 70.656 95.687 70.205 C 95.281 69.732 94.968 69.187 94.763 68.598 C 94.32 67.316 94.272 65.93 94.623 64.62 C 94.786 64.018 95.06 63.453 95.431 62.952 C 95.787 62.475 96.246 62.084 96.773 61.807 C 97.33 61.52 97.946 61.364 98.572 61.351 C 99.198 61.32 99.823 61.432 100.399 61.68 C 100.945 61.918 101.43 62.276 101.819 62.727 C 101.838 62.749 101.854 62.773 101.872 62.795 C 102.545 61.1 103.732 59.657 105.266 58.67 C 104.446 58.049 103.532 57.562 102.56 57.227 C 101.224 56.775 99.815 56.576 98.406 56.641 C 96.997 56.675 95.605 56.973 94.305 57.518 C 93.111 58.02 92.031 58.759 91.13 59.689 C 90.248 60.608 89.562 61.697 89.115 62.89 C 88.646 64.147 88.435 65.487 88.495 66.827 C 88.528 68.165 88.833 69.482 89.39 70.698 C 89.927 71.866 90.697 72.913 91.652 73.774 C 92.607 74.634 93.728 75.292 94.945 75.705 C 96.281 76.157 97.69 76.356 99.098 76.291 C 100.421 76.256 101.728 75.992 102.96 75.51 L 102.96 82.384 L 102.786 82.384 C 102.498 82.037 102.154 81.742 101.768 81.511 C 101.371 81.275 100.939 81.103 100.489 81.002 C 100.002 80.894 99.505 80.84 99.006 80.842 C 97.73 80.826 96.473 81.158 95.372 81.802 C 94.286 82.442 93.396 83.367 92.798 84.477 C 92.144 85.722 91.819 87.113 91.853 88.518 C 91.839 89.642 92.041 90.757 92.45 91.804 C 92.832 92.777 93.416 93.657 94.163 94.389 C 94.909 95.121 95.802 95.686 96.782 96.049 C 97.876 96.45 99.034 96.647 100.198 96.63 C 101.714 96.661 103.214 96.311 104.559 95.613 C 105.79 94.963 106.809 93.974 107.496 92.763 Z M 102.51 90.307 C 102.347 90.629 102.12 90.914 101.842 91.144 C 101.564 91.374 101.242 91.544 100.895 91.644 C 100.548 91.744 100.185 91.771 99.827 91.723 C 99.47 91.675 99.126 91.554 98.817 91.368 C 98.413 91.109 98.091 90.741 97.887 90.307 C 97.657 89.821 97.543 89.288 97.553 88.751 C 97.541 88.237 97.656 87.728 97.887 87.268 C 98.1 86.852 98.421 86.5 98.817 86.25 C 99.233 86.003 99.707 85.873 100.191 85.873 C 100.674 85.873 101.149 86.003 101.565 86.25 C 101.967 86.497 102.293 86.849 102.51 87.268 C 102.74 87.728 102.855 88.237 102.844 88.751 C 102.854 89.288 102.739 89.821 102.51 90.307 Z" style="fill: rgb(255, 255, 255);"/><path d="M 103.108 66.586 C 103.097 67.673 103.306 68.75 103.724 69.753 C 104.126 70.717 104.721 71.588 105.472 72.314 C 106.222 73.04 107.113 73.605 108.089 73.975 C 110.255 74.767 112.631 74.767 114.797 73.975 C 115.773 73.605 116.663 73.04 117.414 72.314 C 118.165 71.588 118.759 70.716 119.162 69.753 C 119.982 67.718 119.982 65.444 119.162 63.409 C 118.765 62.453 118.177 61.589 117.435 60.869 C 116.678 60.139 115.78 59.57 114.797 59.197 C 112.631 58.405 110.255 58.405 108.089 59.197 C 107.106 59.57 106.208 60.139 105.45 60.869 C 104.708 61.589 104.121 62.453 103.724 63.409 C 103.307 64.415 103.097 65.496 103.108 66.586 Z M 108.474 65.131 C 108.608 64.696 108.823 64.29 109.107 63.934 C 109.38 63.595 109.724 63.321 110.117 63.133 C 110.533 62.943 110.985 62.845 111.443 62.845 C 111.9 62.845 112.352 62.943 112.769 63.133 C 113.161 63.321 113.506 63.595 113.778 63.934 C 114.062 64.29 114.277 64.696 114.412 65.131 C 114.702 66.079 114.702 67.093 114.412 68.041 C 114.277 68.476 114.062 68.882 113.778 69.238 C 113.506 69.578 113.161 69.852 112.769 70.04 C 112.352 70.229 111.9 70.327 111.443 70.327 C 110.985 70.327 110.533 70.229 110.117 70.04 C 109.724 69.852 109.379 69.578 109.107 69.238 C 108.823 68.882 108.608 68.476 108.474 68.041 C 108.184 67.093 108.184 66.08 108.474 65.131 Z" style="fill: rgb(255, 255, 255);"/><path d="M 116.569 52.897 L 111.876 52.897 L 109.042 57.042 L 113.735 57.042 L 116.569 52.897 Z" style="fill: rgb(255, 255, 255);"/><path d="M 122.336 120.376 C 122.323 120.557 122.24 120.726 122.103 120.847 C 121.967 120.967 121.789 121.029 121.608 121.019 C 121.016 121.019 120.716 120.512 120.716 119.514 C 120.716 118.533 121.011 118.036 121.592 118.036 C 121.681 118.028 121.771 118.037 121.857 118.064 C 121.943 118.091 122.022 118.135 122.09 118.193 C 122.159 118.251 122.215 118.323 122.256 118.403 C 122.297 118.483 122.321 118.57 122.327 118.66 L 122.342 118.737 L 124.001 118.737 L 123.989 118.632 C 123.889 117.748 123.215 116.803 121.625 116.803 C 120.354 116.803 118.995 117.529 118.995 119.566 C 118.995 121.224 119.976 122.254 121.554 122.254 C 122.905 122.254 123.798 121.583 124.003 120.413 L 124.022 120.303 L 122.352 120.303 L 122.336 120.376 Z" style="fill: rgb(255, 255, 255);"/><path d="M 126.41 116.898 L 124.747 122.159 L 126.394 122.159 L 126.687 121.173 L 128.141 121.173 L 128.449 122.159 L 130.2 122.159 L 128.472 116.898 L 126.41 116.898 Z M 126.987 119.883 C 127.163 119.256 127.297 118.748 127.393 118.343 C 127.501 118.765 127.649 119.296 127.823 119.883 L 126.987 119.883 Z" style="fill: rgb(255, 255, 255);"/><path d="M 133.689 116.898 L 131.244 116.898 L 131.244 122.159 L 132.9 122.159 L 132.9 120.377 L 133.654 120.377 C 134.915 120.377 135.698 119.704 135.698 118.619 C 135.698 117.589 134.891 116.898 133.689 116.898 Z M 133.412 119.143 L 132.9 119.143 L 132.9 118.129 L 133.416 118.129 C 133.828 118.129 134.037 118.301 134.037 118.639 C 134.037 118.973 133.827 119.143 133.412 119.143 Z" style="fill: rgb(255, 255, 255);"/><path d="M 138.632 116.898 L 136.953 116.898 L 136.953 122.159 L 138.632 122.159 L 138.632 116.898 Z" style="fill: rgb(255, 255, 255);"/><path d="M 139.836 118.188 L 141.287 118.188 L 141.287 122.16 L 142.963 122.16 L 142.963 118.188 L 144.401 118.188 L 144.401 116.897 L 139.836 116.897 L 139.836 118.188 Z" style="fill: rgb(255, 255, 255);"/><path d="M 146.173 116.898 L 144.51 122.159 L 146.156 122.159 L 146.45 121.173 L 147.903 121.173 L 148.211 122.159 L 149.963 122.159 L 148.234 116.898 L 146.173 116.898 Z M 146.75 119.883 C 146.925 119.256 147.059 118.748 147.156 118.343 C 147.263 118.765 147.411 119.296 147.585 119.883 L 146.75 119.883 Z" style="fill: rgb(255, 255, 255);"/><path d="M 152.686 116.897 L 151.007 116.897 L 151.007 122.16 L 154.904 122.16 L 155.093 120.87 L 152.686 120.87 L 152.686 116.897 Z" style="fill: rgb(255, 255, 255);"/><path d="M 140.859 87.037 C 141.417 87.037 141.963 86.871 142.427 86.561 C 142.891 86.251 143.252 85.81 143.466 85.295 C 143.679 84.779 143.735 84.212 143.626 83.665 C 143.517 83.117 143.249 82.615 142.854 82.22 C 142.459 81.825 141.957 81.557 141.409 81.448 C 140.862 81.339 140.295 81.395 139.779 81.609 C 139.264 81.822 138.823 82.184 138.513 82.648 C 138.203 83.112 138.037 83.657 138.037 84.215 C 138.038 84.963 138.336 85.68 138.865 86.209 C 139.394 86.738 140.111 87.036 140.859 87.037 Z" style="fill: rgb(255, 255, 255);"/><path d="M 165.639 75.975 L 156.568 66.658 L 151.192 71.81 C 150.966 72.057 150.658 72.214 150.325 72.253 L 150.315 72.253 C 150.139 72.244 149.974 72.167 149.853 72.038 L 149.822 72.008 L 149.807 71.992 C 148.756 70.927 148.505 67.703 148.604 66.214 L 148.79 63.42 L 138.422 63.42 C 138.239 67.018 136.485 68.659 136.485 68.659 L 143.422 68.659 C 143.613 70.888 144.242 73.837 146.126 75.72 C 146.46 76.052 146.828 76.348 147.224 76.603 C 147.403 76.719 147.588 76.826 147.778 76.923 C 150.35 78.207 153.166 77.181 154.815 75.594 L 156.44 74.037 L 160.909 78.626 C 160.841 78.697 160.768 78.774 160.698 78.848 C 160.155 79.419 159.551 80.068 158.886 80.795 C 158.365 81.365 157.952 81.825 157.756 82.044 L 157.601 82.237 C 155.097 85.666 155.43 88.705 156.049 91.627 C 156.124 91.98 156.203 92.33 156.281 92.679 L 156.317 92.837 C 156.801 94.722 157.063 96.657 157.097 98.603 C 157.092 99.772 156.892 100.933 156.503 102.035 C 156.398 102.339 156.282 102.642 156.149 102.943 C 154.988 105.569 152.74 108.135 149.467 110.574 C 149.323 110.682 149.18 110.789 149.032 110.896 C 148.802 111.063 148.567 111.229 148.327 111.395 L 148.469 111.603 L 148.303 111.412 C 147.865 111.713 147.406 112.012 146.937 112.304 C 148.284 112.53 149.622 112.808 150.953 113.139 C 151.881 113.369 152.804 113.624 153.722 113.904 C 156.654 111.673 159.051 108.814 160.735 105.537 C 160.868 105.26 160.993 104.98 161.109 104.699 C 161.917 102.768 162.334 100.696 162.336 98.603 C 162.319 96.627 162.091 94.658 161.657 92.73 C 161.576 92.347 161.494 91.981 161.415 91.627 C 161.407 91.593 161.399 91.557 161.391 91.523 L 161.382 91.48 C 160.713 88.503 160.491 87.22 161.761 85.425 C 163.228 83.791 165.586 81.252 166.261 80.704 L 168.485 78.897 L 165.639 75.975 Z" style="fill: rgb(255, 255, 255);"/><path d="M 139.297 109.305 C 142.155 109.216 144.919 108.265 147.226 106.576 C 147.253 106.556 147.279 106.534 147.307 106.514 C 149.61 104.818 151.351 102.47 152.305 99.774 L 152.375 99.577 L 147.707 96.882 L 147.626 97.206 C 147.158 99.058 146.122 100.716 144.662 101.949 C 144.621 101.984 144.58 102.02 144.538 102.054 C 142.922 103.368 140.904 104.086 138.822 104.089 L 137.377 104.089 L 134.887 97.322 C 134.58 96.46 133.977 95.736 133.184 95.279 C 132.366 94.818 131.44 94.582 130.501 94.597 C 129.56 94.582 128.633 94.822 127.818 95.292 C 127.026 95.756 126.423 96.485 126.115 97.349 L 119.926 114.874 C 122.047 114.054 124.226 113.395 126.446 112.904 L 127.509 109.314 L 133.465 109.314 L 134.222 111.728 C 136.192 111.577 138.169 111.536 140.144 111.605 L 139.297 109.305 Z M 131.684 104.31 L 129.069 104.31 L 130.31 100.539 C 130.324 100.49 130.352 100.447 130.392 100.416 C 130.423 100.391 130.461 100.376 130.501 100.375 C 130.55 100.373 130.597 100.388 130.637 100.416 C 130.676 100.447 130.705 100.49 130.719 100.539 L 131.892 104.31 L 131.684 104.31 Z" style="fill: rgb(255, 255, 255);"/></svg>