<svg width="35" height="44" viewBox="0 0 35 44" fill="none" xmlns="http://www.w3.org/2000/svg">
<path d="M15.0578 13.4102C15.8175 12.556 16.2813 11.4783 16.3799 10.3379C16.4785 9.19757 16.2067 8.05586 15.6049 7.08327C15.0031 6.1107 14.1037 5.35945 13.041 4.94176C11.9784 4.52405 10.8095 4.46232 9.70895 4.76577C8.60841 5.06921 7.63532 5.72156 6.93498 6.62536C6.23464 7.52916 5.84466 8.63592 5.82327 9.78033C5.80188 10.9247 6.15021 12.0454 6.81629 12.9748C7.48236 13.9044 8.43042 14.5928 9.51882 14.9374C7.40086 15.8908 5.47712 17.2289 3.84473 18.8844L5.76641 20.8115C8.93535 17.6353 12.7716 16.0414 17.2752 16.0298C17.7213 16.0298 18.1576 16.045 18.584 16.0755C18.8134 15.0835 19.3297 14.1815 20.0681 13.4826C18.4088 13.233 16.7235 13.2087 15.0578 13.4102Z" fill="white"/>
<path d="M27.9597 20.0023C28.2541 20.2626 28.5405 20.531 28.8189 20.8075L30.7406 18.8803C30.1174 18.2559 29.4539 17.673 28.7546 17.1357C28.7742 18.1485 28.4979 19.1449 27.9597 20.0023Z" fill="white"/>
<path d="M28.6475 9.89269C29.5526 9.36786 30.2823 8.58571 30.7442 7.64509C31.2061 6.70449 31.3797 5.64765 31.2428 4.60818C31.1058 3.56871 30.6647 2.59327 29.9751 1.80517C29.2855 1.01706 28.3785 0.451664 27.3686 0.180456C26.3586 -0.0907534 25.2911 -0.0556025 24.3011 0.281465C23.3111 0.618532 22.4429 1.24238 21.8064 2.07416C21.1699 2.90594 20.7935 3.9083 20.7249 4.95453C20.6564 6.00077 20.8986 7.04391 21.421 7.9521C21.4759 8.04739 21.5348 8.14 21.595 8.23126C20.175 7.96405 18.7333 7.82927 17.2886 7.82864H17.0343C17.3377 8.70761 17.4418 9.64331 17.3394 10.5677C23.0269 10.5677 28.6408 12.927 32.6582 16.9572L34.5812 15.03C32.6324 13.0635 30.358 11.4511 27.8593 10.2644C28.1318 10.1624 28.3954 10.0381 28.6475 9.89269Z" fill="white"/>
<path d="M4.97554 11.1837C3.15625 12.2418 1.48342 13.535 0 15.03L1.92839 16.9572C3.18349 15.6932 4.58999 14.5901 6.11572 13.6732C5.95967 13.4663 5.81665 13.2498 5.68749 13.025C5.35535 12.4525 5.11509 11.8311 4.97554 11.1837Z" fill="white"/>
<path d="M25.2057 21.2772C26.0043 20.9578 26.6901 20.4071 27.1756 19.6955C27.661 18.9837 27.9241 18.1431 27.9313 17.2808C27.9385 16.4185 27.6895 15.5736 27.2161 14.8539C26.7425 14.134 26.0661 13.5719 25.2728 13.2392C24.4796 12.9065 23.6055 12.8181 22.762 12.9856C21.9185 13.1529 21.1438 13.5683 20.5366 14.1789C19.9296 14.7896 19.5175 15.5676 19.353 16.4141C19.1885 17.2605 19.2791 18.1367 19.6132 18.9313C18.8456 18.8101 18.0697 18.7499 17.2927 18.7515C13.5457 18.7515 10.3442 20.0805 7.68823 22.7387L9.60991 24.6659C11.7314 22.5401 14.2924 21.4758 17.2927 21.4731C20.2931 21.4705 22.8539 22.5347 24.9755 24.6659L26.8919 22.7333C26.3678 22.2054 25.8041 21.7185 25.2057 21.2772Z" fill="white"/>
<path d="M6.74598 42.7484L3.44324 34.0159H5.06114L7.84199 41.7405H7.3589L10.1009 34.0293L11.6158 34.0159L8.23412 42.7484H6.74598Z" fill="white"/>
<path d="M14.9682 42.9457C14.3849 42.96 13.8078 42.8247 13.2914 42.5525C12.814 42.2877 12.4305 41.8806 12.1941 41.3876C11.9212 40.7977 11.7892 40.1521 11.8086 39.502C11.8086 38.3586 12.0763 37.4921 12.6116 36.9025C13.1469 36.3129 13.8931 36.0186 14.8504 36.0194C15.5561 36.0194 16.1266 36.1764 16.5621 36.4905C17.0068 36.8189 17.3377 37.2789 17.5081 37.8057C17.7143 38.4417 17.8094 39.1087 17.7892 39.7771H12.6343L12.5955 38.7558H16.7441L16.4175 39.0833C16.3916 38.4114 16.2524 37.9193 15.9999 37.607C15.7475 37.2949 15.3514 37.14 14.8116 37.1427C14.5018 37.1328 14.1951 37.2074 13.9244 37.3588C13.6589 37.5298 13.4622 37.7892 13.369 38.0915C13.2268 38.5508 13.1629 39.0308 13.1803 39.5114C13.1803 40.246 13.3498 40.8024 13.6889 41.1809C14.0278 41.5593 14.5283 41.7495 15.1904 41.7513C15.4688 41.7528 15.7468 41.7263 16.0201 41.6721C16.262 41.6241 16.4997 41.5564 16.7307 41.4694C16.9483 41.3862 17.1356 41.3057 17.2927 41.2279V42.4974C16.9596 42.6366 16.6141 42.7441 16.2609 42.8182C15.8357 42.9065 15.4023 42.9493 14.9682 42.9457Z" fill="white"/>
<path d="M19.2504 42.7484V34.0159H23.0724C24.6033 34.0159 25.7186 34.3867 26.418 35.1284C27.1174 35.8701 27.4681 36.9567 27.4698 38.3882C27.4698 39.8116 27.1192 40.8942 26.418 41.6359C25.7167 42.3776 24.6016 42.7484 23.0724 42.7484H19.2504ZM21.868 40.785H22.7565C23.4007 40.785 23.9034 40.595 24.2647 40.2146C24.6261 39.8344 24.8046 39.2257 24.8 38.3882C24.8 37.5428 24.6216 36.9299 24.2647 36.5496C23.9079 36.1693 23.4052 35.9793 22.7565 35.9793H21.868V40.785Z" fill="white"/>
<path d="M28.7157 35.2987V33.5836H31.1446V35.2987H28.7157ZM28.7425 42.7484V36.2154H31.1192L31.1446 42.7484H28.7425Z" fill="white"/>
</svg>
